<svg preserveAspectRatio="xMidYMid meet" viewBox="40.0809 31.7376 267.264 256.824" xmlns="http://www.w3.org/2000/svg" version="1.0" style="max-height: 500px" width="267.264" height="256.824">

<g stroke="none" fill="#000000" transform="translate(0.000000,348.000000) scale(0.100000,-0.100000)" data-darkreader-inline-fill="" data-darkreader-inline-stroke="" style="--darkreader-inline-fill: var(--darkreader-background-000000, #000000); --darkreader-inline-stroke: none;">
<path d="M0 1740 l0 -1740 1740 0 1740 0 0 1740 0 1740 -1740 0 -1740 0 0&#10;-1740z m2075 1305 l0 -70 -60 0 -60 0 -3 73 -3 73 63 -3 63 -3 0 -70z m-814&#10;-152 c60 -35 73 -63 77 -173 l4 -100 -66 0 -66 0 0 69 c0 87 -21 121 -66 106&#10;-28 -10 -29 -13 -32 -90 -5 -131 -2 -139 102 -240 65 -63 96 -102 105 -130 7&#10;-22 15 -101 18 -175 4 -126 3 -138 -19 -180 -31 -60 -72 -80 -163 -80 -137 0&#10;-178 46 -183 208 l-4 103 68 -3 69 -3 5 -89 c4 -77 8 -90 25 -96 30 -11 64 6&#10;71 36 11 43 -2 196 -21 241 -11 28 -42 65 -93 110 -97 87 -114 124 -120 261&#10;-7 149 18 206 105 238 49 18 143 12 184 -13z m459 14 c0 -4 86 -701 105 -850&#10;8 -66 15 -125 15 -133 0 -11 -16 -14 -64 -14 l-65 0 -6 58 c-3 31 -9 77 -13&#10;102 l-7 45 -50 0 -50 0 -8 -60 c-4 -33 -10 -79 -13 -102 l-5 -43 -65 0 c-48 0&#10;-64 3 -64 14 0 8 7 65 15 128 18 136 105 841 105 851 0 4 38 7 85 7 47 0 85&#10;-1 85 -3z m360 -502 l0 -495 -65 0 -65 0 0 495 0 495 65 0 65 0 0 -495z m460&#10;435 l0 -60 -55 0 -55 0 0 -435 0 -435 -70 0 -70 0 0 435 0 435 -55 0 -55 0 0&#10;60 0 60 180 0 180 0 0 -60z m-1885 -1312 c73 -484 92 -591 98 -563 4 17 27&#10;163 52 325 25 162 47 310 50 328 l6 32 79 0 80 0 0 -500 0 -500 -61 0 -62 0 6&#10;353 6 352 -34 -200 c-18 -110 -43 -261 -55 -335 -28 -181 -24 -170 -74 -170&#10;l-43 0 -31 193 c-17 105 -43 270 -58 364 -15 95 -28 172 -30 170 -1 -1 2 -121&#10;6 -267 5 -146 9 -309 10 -362 l0 -98 -65 0 -65 0 0 493 c0 272 3 497 7 500 3&#10;4 41 7 83 7 l76 0 19 -122z m769 85 c10 -66 116 -927 116 -945 0 -15 -10 -18&#10;-64 -18 l-64 0 -6 63 c-4 34 -9 79 -12 100 l-6 37 -53 0 -53 0 -7 -77 c-10&#10;-130 -6 -123 -81 -123 l-65 0 6 43 c14 105 115 934 115 945 0 8 25 12 84 12&#10;l84 0 6 -37z m511 19 c37 -13 54 -26 70 -52 19 -34 20 -51 20 -430 0 -431 0&#10;-431 -58 -474 -25 -18 -45 -21 -168 -24 l-139 -4 0 501 0 501 113 0 c79 -1&#10;127 -6 162 -18z m875 -289 c40 -170 76 -316 79 -325 3 -9 4 129 3 308 l-4 324&#10;61 0 61 0 0 -500 0 -500 -64 0 -64 0 -7 33 c-8 39 -131 549 -143 592 -4 16 -6&#10;-118 -4 -298 l4 -327 -61 0 -61 0 0 500 0 500 63 0 63 0 74 -307z m-340 237&#10;l0 -60 -85 0 -85 0 0 -155 0 -155 75 0 75 0 0 -60 0 -60 -75 0 -76 0 3 -157 3&#10;-158 52 3 c29 2 66 1 83 -3 29 -6 30 -8 30 -66 l0 -59 -150 0 -150 0 0 495 0&#10;495 150 0 150 0 0 -60z"/>
<path d="M1622 2573 c-6 -65 -14 -156 -17 -203 -3 -47 -8 -95 -11 -107 -4 -21&#10;-1 -23 42 -23 44 0 45 1 40 28 -3 15 -13 115 -22 222 -9 107 -17 196 -19 198&#10;-1 1 -7 -51 -13 -115z"/>
<path d="M1329 1404 c0 -16 -8 -118 -18 -226 l-17 -198 43 0 44 0 -6 33 c-3&#10;17 -12 117 -21 222 -15 178 -23 237 -25 169z"/>
<path d="M1790 1151 c0 -361 0 -369 20 -374 11 -3 33 -2 48 2 l27 7 3 354 c2&#10;252 -1 357 -9 366 -6 8 -29 14 -50 14 l-39 0 0 -369z"/>
</g>
</svg>